<svg width="25" height="25" viewBox="0 0 25 25" fill="none" xmlns="http://www.w3.org/2000/svg">
<path d="M21.25 23.75L12.5 15L9.5625 17.9375C9.72917 18.25 9.84375 18.5833 9.90625 18.9375C9.96875 19.2917 10 19.6458 10 20C10 21.375 9.51042 22.5521 8.53125 23.5312C7.55208 24.5104 6.375 25 5 25C3.625 25 2.44792 24.5104 1.46875 23.5312C0.489583 22.5521 0 21.375 0 20C0 18.625 0.489583 17.4479 1.46875 16.4688C2.44792 15.4896 3.625 15 5 15C5.35417 15 5.70833 15.0312 6.0625 15.0938C6.41667 15.1562 6.75 15.2708 7.0625 15.4375L10 12.5L7.0625 9.5625C6.75 9.72917 6.41667 9.84375 6.0625 9.90625C5.70833 9.96875 5.35417 10 5 10C3.625 10 2.44792 9.51042 1.46875 8.53125C0.489583 7.55208 0 6.375 0 5C0 3.625 0.489583 2.44792 1.46875 1.46875C2.44792 0.489583 3.625 0 5 0C6.375 0 7.55208 0.489583 8.53125 1.46875C9.51042 2.44792 10 3.625 10 5C10 5.35417 9.96875 5.70833 9.90625 6.0625C9.84375 6.41667 9.72917 6.75 9.5625 7.0625L25 22.5V23.75H21.25ZM16.25 11.25L13.75 8.75L21.25 1.25H25V2.5L16.25 11.25ZM5 7.5C5.6875 7.5 6.27604 7.25521 6.76562 6.76562C7.25521 6.27604 7.5 5.6875 7.5 5C7.5 4.3125 7.25521 3.72396 6.76562 3.23438C6.27604 2.74479 5.6875 2.5 5 2.5C4.3125 2.5 3.72396 2.74479 3.23438 3.23438C2.74479 3.72396 2.5 4.3125 2.5 5C2.5 5.6875 2.74479 6.27604 3.23438 6.76562C3.72396 7.25521 4.3125 7.5 5 7.5ZM12.5 13.125C12.6667 13.125 12.8125 13.0625 12.9375 12.9375C13.0625 12.8125 13.125 12.6667 13.125 12.5C13.125 12.3333 13.0625 12.1875 12.9375 12.0625C12.8125 11.9375 12.6667 11.875 12.5 11.875C12.3333 11.875 12.1875 11.9375 12.0625 12.0625C11.9375 12.1875 11.875 12.3333 11.875 12.5C11.875 12.6667 11.9375 12.8125 12.0625 12.9375C12.1875 13.0625 12.3333 13.125 12.5 13.125ZM5 22.5C5.6875 22.5 6.27604 22.2552 6.76562 21.7656C7.25521 21.276 7.5 20.6875 7.5 20C7.5 19.3125 7.25521 18.724 6.76562 18.2344C6.27604 17.7448 5.6875 17.5 5 17.5C4.3125 17.5 3.72396 17.7448 3.23438 18.2344C2.74479 18.724 2.5 19.3125 2.5 20C2.5 20.6875 2.74479 21.276 3.23438 21.7656C3.72396 22.2552 4.3125 22.5 5 22.5Z" fill="#CDA751"/>
</svg>
